<svg width="41" height="25" viewBox="0 0 41 25" fill="none" xmlns="http://www.w3.org/2000/svg">
<path d="M2.2565 11.8423L2.80063 11.8423C15.0713 11.8423 27.3432 11.8423 39.6138 11.8423C40.2894 11.8423 40.5412 11.9865 40.551 12.3764C40.5608 12.7871 40.3041 12.9399 39.5978 12.9399C27.3272 12.9399 15.0553 12.9399 2.78467 12.9399L2.15209 12.9399C2.33143 13.1331 2.44566 13.2639 2.56971 13.3873C5.91681 16.7195 9.26391 20.0504 12.611 23.3814C12.6761 23.4462 12.7424 23.5097 12.8063 23.5757C13.1539 23.9327 13.1969 24.2322 12.9377 24.4876C12.6823 24.7407 12.3789 24.7015 12.0251 24.3495C8.36235 20.7069 4.7008 17.063 1.03926 13.4203C0.855017 13.237 0.667088 13.0585 0.482844 12.8752C0.14015 12.5353 0.145063 12.2444 0.493898 11.8985C4.22177 8.19228 7.94964 4.48484 11.6787 0.778632C11.863 0.595278 12.0411 0.403366 12.2438 0.243236C12.4648 0.0684383 12.7093 0.0928834 12.9144 0.278684C13.1355 0.479152 13.1699 0.73096 13.0053 0.9791C12.9144 1.11723 12.783 1.22968 12.6638 1.34825C9.3069 4.6902 5.94998 8.03215 2.58814 11.3704C2.4604 11.4963 2.29458 11.5843 2.14595 11.6895C2.1828 11.7408 2.21965 11.7909 2.2565 11.8423Z" fill="black"/>
</svg>
