<svg width="30" height="30" viewBox="0 0 30 30" fill="none" xmlns="http://www.w3.org/2000/svg">
<path d="M28.4003 2.67852L28.0155 3.06328C19.3388 11.7399 10.6613 20.4175 1.98464 29.0941C1.50695 29.5718 1.22691 29.6479 0.944234 29.3791C0.646866 29.0956 0.720347 28.8061 1.21975 28.3067C9.89642 19.63 18.5739 10.9525 27.2506 2.27581L27.6979 1.82851C27.4345 1.81875 27.2613 1.80704 27.0863 1.80746C22.3633 1.81802 17.6412 1.82945 12.9191 1.84087C12.8273 1.84109 12.7354 1.84305 12.6436 1.84154C12.1454 1.83494 11.9032 1.65358 11.9059 1.28967C11.9076 0.930094 12.1498 0.743226 12.6488 0.742018C17.8146 0.727789 22.9803 0.715294 28.1451 0.701934C28.405 0.701305 28.6641 0.694613 28.924 0.693984C29.4067 0.691951 29.6089 0.901138 29.6068 1.39241C29.5915 6.6491 29.5771 11.9067 29.5609 17.1642C29.5603 17.4241 29.57 17.6858 29.5399 17.9423C29.5072 18.2223 29.3171 18.3778 29.0407 18.3915C28.7426 18.4061 28.5402 18.2523 28.4811 17.9605C28.4477 17.7985 28.4611 17.6261 28.4615 17.458C28.4721 12.7212 28.4827 7.98436 28.4994 3.24666C28.5007 3.0673 28.5557 2.88782 28.5865 2.70839C28.5241 2.69815 28.4626 2.68876 28.4003 2.67852Z" fill="white"/>
</svg>
