<svg width="41" height="25" viewBox="0 0 41 25" fill="none" xmlns="http://www.w3.org/2000/svg">
<path d="M38.5274 12.9417L37.9833 12.9417C25.7127 12.9417 13.4408 12.9417 1.17012 12.9417C0.494559 12.9417 0.242759 12.7974 0.232933 12.4075C0.223107 11.9968 0.479821 11.844 1.18609 11.844C13.4567 11.844 25.7286 11.844 37.9993 11.844L38.6318 11.844C38.4525 11.6509 38.3383 11.5201 38.2142 11.3966C34.8671 8.06444 31.52 4.7335 28.1729 1.40255C28.1078 1.33776 28.0415 1.2742 27.9776 1.20819C27.63 0.851263 27.587 0.551784 27.8462 0.29631C28.1017 0.0432805 28.4051 0.0823963 28.7588 0.434437C32.4216 4.07708 36.0831 7.72096 39.7447 11.3636C39.9289 11.547 40.1168 11.7254 40.3011 11.9088C40.6438 12.2486 40.6389 12.5395 40.29 12.8854C36.5622 16.5917 32.8343 20.2991 29.1052 24.0053C28.921 24.1887 28.7429 24.3806 28.5402 24.5407C28.3191 24.7155 28.0747 24.6911 27.8695 24.5053C27.6484 24.3048 27.6141 24.053 27.7786 23.8048C27.8695 23.6667 28.001 23.5543 28.1201 23.4357C31.477 20.0937 34.834 16.7518 38.1958 13.4135C38.3235 13.2876 38.4894 13.1996 38.638 13.0945C38.6011 13.0431 38.5643 12.993 38.5274 12.9417Z" fill="black"/>
</svg>
