<svg width="168" height="66" viewBox="0 0 168 66" fill="none" xmlns="http://www.w3.org/2000/svg">
<circle cx="62.7567" cy="32.7006" r="32.2006" stroke="white"/>
<path d="M73.0096 16C73.606 16.154 74.216 16.2464 74.7929 16.4825C77.5065 17.5923 79.2795 20.4394 78.9637 23.202C78.6091 26.3045 76.404 28.6451 73.3722 29.1288C72.874 29.2086 72.37 29.2086 71.8649 29.2086C71.0747 29.2086 70.6939 29.6124 70.768 30.3994C70.9539 32.3693 71.158 34.3381 71.3552 36.3068C71.508 37.833 71.6654 39.3591 71.8079 40.8865C71.8284 41.1123 71.8877 41.207 72.1294 41.2321C74.0073 41.4317 75.3459 42.8837 75.3778 44.8034C75.4074 46.584 75.3949 48.3656 75.3812 50.1462C75.3721 51.2412 74.5979 51.9963 73.5068 51.9974C67.9552 52.0009 62.4036 52.0009 56.8521 51.9974C55.7849 51.9974 55.0084 51.2629 55.0027 50.2066C54.9959 49.0831 54.8933 47.9516 55.0734 46.8372C55.6161 43.4985 58.3013 41.2218 61.6785 41.2013C62.3341 41.1979 62.9908 41.1865 63.6464 41.207C63.9463 41.2161 64.0558 41.1557 64.0193 40.8237C63.83 39.0888 63.6647 37.3528 63.4902 35.6167C63.3865 34.5799 63.2713 33.5442 63.1824 32.5051C63.1619 32.2575 63.0786 32.188 62.8438 32.1971C62.4344 32.2119 62.024 32.2108 61.6146 32.1982C60.5269 32.1674 59.8052 31.4249 59.7949 30.3356C59.7926 30.0424 59.7824 29.7493 59.7983 29.4573C59.8086 29.2519 59.7299 29.1983 59.5349 29.2006C58.8793 29.2097 58.2237 29.2006 57.567 29.2052C56.7711 29.212 56.1589 28.9006 55.7906 28.1797C55.7096 28.0223 55.6047 27.9984 55.4554 28.0029C55.1395 28.0121 54.8203 28.0201 54.5136 27.9265C54.0336 27.7805 53.6505 27.4954 53.427 27.0437C53.3255 26.8395 53.2024 26.7904 52.9926 26.7916C51.646 26.7996 50.2983 26.7916 48.9518 26.7984C48.4854 26.8007 48.0499 26.7083 47.636 26.4882C47.213 26.2623 46.7808 26.0547 46.3487 25.846C46.034 25.6943 45.7661 25.489 45.611 25.1719C45.5323 25.0122 45.4206 24.9996 45.2724 24.9985C44.9805 24.9962 44.6886 25.0236 44.3979 24.9529C43.6317 24.7658 43.2246 24.2354 43 23.5225V21.6245C43.2474 20.9584 43.6362 20.4337 44.3694 20.2523C44.6692 20.1782 44.9748 20.2101 45.2792 20.2067C45.4138 20.2055 45.5244 20.201 45.5962 20.055C45.7741 19.6888 46.0888 19.4744 46.4479 19.3044C46.8607 19.1094 47.2688 18.9052 47.6725 18.6942C48.0761 18.4832 48.5014 18.3931 48.9575 18.3965C50.304 18.4033 51.6517 18.3953 52.9983 18.4033C53.2069 18.4045 53.3255 18.3566 53.4304 18.1547C53.6915 17.6482 54.1259 17.3471 54.688 17.233C54.956 17.1783 55.225 17.2114 55.4941 17.2011C55.5967 17.1977 55.6994 17.2171 55.7552 17.0847C56.0027 16.5007 56.4929 16.2042 57.0585 16H73.0131L73.0096 16ZM67.262 17.2011C65.5049 17.2011 63.7479 17.2102 61.992 17.1931C61.6682 17.1897 61.5816 17.2775 61.5827 17.5992C61.5941 20.8215 61.5896 24.0438 61.5896 27.265C61.5896 27.7448 61.8339 27.9923 62.3227 28.0075C63.2485 28.036 63.9896 28.6668 64.0831 29.5542C64.3043 31.6382 64.5084 33.7244 64.7171 35.8106C64.8881 37.5113 65.0557 39.2131 65.2233 40.915C65.2404 41.0918 65.2678 41.2184 65.505 41.2173C67.1331 41.2081 68.7613 41.2093 70.3884 41.2161C70.5993 41.2161 70.6472 41.1363 70.6255 40.9435C70.5548 40.315 70.4876 39.6865 70.434 39.0569C70.418 38.8641 70.3473 38.7968 70.1535 38.8037C69.7909 38.8162 69.4272 38.8151 69.0646 38.8037C68.1217 38.7729 67.4284 38.1444 67.3099 37.209C67.0157 34.8981 66.7409 32.5849 66.433 30.2751C66.2518 28.9166 67.0031 28.0166 68.3759 28.0144C69.7225 28.0121 71.0702 28.0258 72.4167 28.0109C75.3618 27.9779 77.7494 25.6087 77.7836 22.699C77.8189 19.7459 75.3538 17.2285 72.3905 17.2057C70.6802 17.1931 68.9711 17.2034 67.2608 17.2034L67.262 17.2011ZM65.1766 50.7998C67.9164 50.7998 70.6574 50.7998 73.3973 50.7998C73.9788 50.7998 74.1863 50.5979 74.1874 50.0218C74.1897 48.3109 74.1966 46.6011 74.1852 44.8901C74.1749 43.4244 73.1715 42.4081 71.7098 42.4024C68.6416 42.391 65.5734 42.4012 62.5051 42.3944C62.2691 42.3944 62.1642 42.448 62.1847 42.7046C62.2064 42.9727 62.1916 43.243 62.1893 43.5122C62.1813 44.6517 61.4345 45.3931 60.2875 45.3966C59.21 45.3988 58.1325 45.4034 57.055 45.392C56.8327 45.3897 56.7153 45.4616 56.6366 45.6646C56.4804 46.0695 56.3379 46.4767 56.274 46.9079C56.1269 47.8991 56.2216 48.896 56.2022 49.8907C56.1874 50.6492 56.3481 50.8009 57.0938 50.8009C59.7869 50.8009 62.4812 50.8009 65.1743 50.8009L65.1766 50.7998ZM60.3832 22.6374C60.3832 20.9504 60.3741 19.2645 60.3912 17.5775C60.3946 17.2615 60.3034 17.1851 59.9979 17.1931C59.226 17.2159 58.4529 17.2 57.6799 17.2011C56.9559 17.2011 56.7757 17.3961 56.7825 18.1227C56.7848 18.336 56.8418 18.4102 57.0596 18.4045C57.5624 18.3908 58.0664 18.3896 58.5692 18.4045C58.9569 18.4159 59.1929 18.6748 59.1792 19.0295C59.1655 19.3706 58.9329 19.5839 58.5498 19.593C58.2568 19.5999 57.9649 19.5953 57.6719 19.5953C56.7711 19.5953 56.7791 19.5953 56.7814 20.4918C56.7814 20.7359 56.8532 20.8169 57.0984 20.8101C57.6012 20.7952 58.1052 20.793 58.608 20.8169C58.9774 20.834 59.1952 21.0987 59.1792 21.4408C59.1644 21.7659 58.9398 21.9815 58.5772 21.9963C58.2853 22.0077 57.9923 22.0009 57.6992 22.0009C56.7506 22.0009 56.7586 22.0009 56.7814 22.9442C56.7871 23.1712 56.8715 23.2202 57.0733 23.2157C57.5647 23.2066 58.0573 23.2054 58.5487 23.2157C58.95 23.2259 59.1849 23.4586 59.1803 23.8145C59.1769 24.1544 58.95 24.3814 58.5681 24.4008C58.2762 24.4168 57.9832 24.4065 57.6901 24.4065C56.7586 24.4065 56.7677 24.4065 56.7814 25.3259C56.7848 25.5722 56.8817 25.6167 57.095 25.6122C57.575 25.6019 58.055 25.611 58.535 25.6099C58.8201 25.6099 59.0412 25.7194 59.1473 25.992C59.3046 26.3958 59.0241 26.7859 58.5487 26.8041C58.0573 26.8224 57.5658 26.8064 57.0733 26.8133C56.9684 26.8144 56.8395 26.7642 56.7894 26.9353C56.6126 27.5387 56.9433 28.0018 57.5715 28.0041C58.3788 28.0075 59.1872 27.9915 59.9944 28.0121C60.3 28.0201 60.3924 27.9414 60.3901 27.6254C60.3741 25.9623 60.3821 24.2993 60.3821 22.6362L60.3832 22.6374ZM48.9905 22.5724C48.9905 23.4735 48.9974 24.3757 48.986 25.2768C48.9825 25.5198 49.0566 25.6008 49.3029 25.5985C50.3097 25.5871 51.3154 25.5939 52.3221 25.5939C53.2103 25.5939 53.2024 25.5939 53.1978 24.6871C53.1967 24.4601 53.1385 24.3814 52.9048 24.386C52.2378 24.3997 51.5708 24.3951 50.9037 24.3883C50.4579 24.3837 50.1946 24.1464 50.2037 23.7803C50.2117 23.4278 50.4693 23.1997 50.8958 23.1917C51.3632 23.1826 51.8319 23.1894 52.3005 23.1894C53.2172 23.1894 53.2069 23.1894 53.2001 22.2735C53.1978 22.0328 53.1146 21.9815 52.8956 21.9849C52.2286 21.9963 51.5616 21.9929 50.8946 21.9872C50.4693 21.9838 50.2117 21.7602 50.2048 21.4055C50.198 21.0382 50.4659 20.7998 50.906 20.7941C51.3746 20.7884 51.8421 20.793 52.3107 20.793C53.2069 20.793 53.1978 20.793 53.2001 19.9033C53.2001 19.6603 53.1362 19.585 52.8877 19.5885C51.6939 19.601 50.5001 19.5999 49.3064 19.5885C49.0646 19.5862 48.9825 19.6512 48.9871 19.901C49.0008 20.7907 48.9928 21.6804 48.9928 22.5701L48.9905 22.5724ZM69.572 37.5946C69.7236 37.5946 69.8775 37.5832 70.0281 37.5969C70.2356 37.6163 70.3028 37.5307 70.2652 37.3345C70.2481 37.2433 70.2413 37.1486 70.2321 37.0562C70.0121 34.8445 69.7909 32.6317 69.572 30.4188C69.5378 30.0766 69.5663 29.739 69.7054 29.4196C69.7784 29.2519 69.7453 29.1938 69.5583 29.1983C69.1843 29.2075 68.8092 29.1995 68.4352 29.2006C67.7146 29.2029 67.5322 29.4333 67.6245 30.1576C67.9039 32.3385 68.1775 34.5217 68.4432 36.7049C68.5367 37.4748 68.653 37.5946 69.4329 37.5946C69.4796 37.5946 69.5264 37.5946 69.5731 37.5946H69.572ZM55.5876 22.5735C55.5876 21.2857 55.5819 19.9979 55.5922 18.709C55.5945 18.4718 55.5397 18.3862 55.2855 18.3896C54.5774 18.3976 54.3927 18.5676 54.3916 19.2828C54.3916 21.507 54.3916 23.7324 54.3916 25.9566C54.3916 26.6216 54.582 26.7927 55.257 26.803C55.5135 26.8064 55.5967 26.7425 55.5933 26.4722C55.5785 25.173 55.5865 23.8727 55.5865 22.5735H55.5876ZM47.7899 25.2232C47.7899 24.9221 47.7899 24.6791 47.7899 24.4362C47.7899 23.0549 47.7865 21.6724 47.7933 20.2911C47.7933 20.0607 47.7682 19.9546 47.5174 20.1074C47.3088 20.2352 47.0819 20.3333 46.8607 20.4405C46.6862 20.5249 46.5938 20.6527 46.5938 20.8534C46.595 22.0123 46.5939 23.1723 46.5904 24.3312C46.5904 24.4807 46.6189 24.6221 46.7558 24.6951C47.0807 24.8696 47.4136 25.0316 47.791 25.2232H47.7899ZM57.5921 44.192C58.6057 44.192 59.5349 44.2034 60.4642 44.1852C60.772 44.1795 60.9761 43.9217 60.9887 43.5898C61.0001 43.275 60.9841 42.959 60.9955 42.6442C61.0024 42.464 60.9362 42.4298 60.7698 42.4583C59.5475 42.6727 58.5019 43.2122 57.5909 44.1909L57.5921 44.192ZM62.1916 30.9891C62.4025 30.9891 62.6134 30.98 62.8232 30.9914C63.0057 31.0017 63.0399 30.9196 63.0182 30.7587C62.9726 30.4222 62.9464 30.0835 62.8985 29.7481C62.8472 29.3911 62.6511 29.22 62.2828 29.2052C62.0491 29.1949 61.8142 29.2018 61.5804 29.2018C61.189 29.2018 60.9932 29.3983 60.9932 29.7915C60.9932 30.9606 61.0229 30.9903 62.1916 30.9891ZM45.3944 22.61C45.3944 22.2826 45.3967 21.9553 45.3932 21.6279C45.3932 21.5526 45.4172 21.4659 45.3214 21.4146C44.8585 21.1705 44.22 21.5287 44.2029 22.0511C44.1915 22.4013 44.1949 22.7526 44.2017 23.1028C44.212 23.6548 44.8038 24.0198 45.3111 23.7951C45.416 23.7484 45.3932 23.6651 45.3944 23.591C45.3978 23.2636 45.3955 22.9362 45.3955 22.6089L45.3944 22.61Z" fill="white"/>
<path d="M0 33H31" stroke="white"/>
<path d="M95 33L168 33" stroke="white"/>
</svg>
