<svg width="168" height="66" viewBox="0 0 168 66" fill="none" xmlns="http://www.w3.org/2000/svg">
<circle cx="62.7567" cy="32.7006" r="32.2006" stroke="white"/>
<path d="M41 19.4517C41.1359 19.0467 41.2034 18.6187 41.4067 18.2367C42.1213 16.8905 43.21 16.1369 44.7155 16.0794C45.529 16.0483 46.3447 16.0598 47.1581 16.0748C48.1064 16.092 48.8142 16.8342 48.8389 17.8133C48.8445 18.0434 48.8636 18.277 48.8355 18.5025C48.7906 18.8615 48.9457 18.9248 49.2625 18.9236C53.1657 18.9133 57.0699 18.9167 60.9731 18.9179C61.1135 18.9179 61.2551 18.9121 61.3944 18.9248C61.736 18.9547 61.9405 19.1583 61.9753 19.4978C62.0124 19.8636 61.8214 20.1053 61.4787 20.1916C61.3192 20.2318 61.1439 20.2203 60.9765 20.2203C57.0868 20.2215 53.1971 20.2284 49.3074 20.2111C48.9097 20.21 48.8322 20.3331 48.8333 20.7128C48.8445 27.6001 48.8243 34.4887 48.858 41.376C48.8636 42.591 48.1086 43.5564 46.8019 43.4551C46.1593 43.4057 45.511 43.4367 44.865 43.4494C43.4077 43.4781 42.2763 44.6276 42.273 46.067C42.2707 47.5086 43.3988 48.6638 44.856 48.6937C45.6144 48.7087 46.3728 48.6972 47.1311 48.6972C58.5755 48.6972 70.0187 48.6972 81.463 48.6972C82.6102 48.6972 82.7225 48.5844 82.7225 47.4292C82.7225 38.7297 82.7225 30.0302 82.7225 21.3306C82.7225 21.173 82.7203 21.0142 82.718 20.8566C82.7135 20.4758 82.5169 20.2468 82.1563 20.2376C81.272 20.2157 80.3878 20.2272 79.5025 20.2203C79.3407 20.2192 79.2721 20.2882 79.28 20.4516C79.2856 20.5805 79.28 20.7105 79.28 20.8393C79.28 27.324 79.2778 33.8098 79.2856 40.2945C79.2856 40.7536 79.1991 41.1666 78.9935 41.5751C78.5362 42.4806 78.1093 43.4022 77.6565 44.31C77.4576 44.7104 77.2868 45.0982 77.3161 45.5722C77.3397 45.953 77.0655 46.2016 76.7206 46.2131C76.3577 46.2257 76.0476 45.9726 76.0734 45.5803C76.1083 45.0567 75.897 44.6356 75.6824 44.2007C75.242 43.3021 74.8173 42.3966 74.3657 41.5038C74.1791 41.1344 74.105 40.7605 74.105 40.3463C74.1117 33.8328 74.1106 27.3183 74.1084 20.8048C74.1084 20.134 74.2005 20.2226 73.5196 20.2226C70.5569 20.2192 67.5941 20.2226 64.6313 20.2203C64.4639 20.2203 64.2875 20.2307 64.1302 20.1858C63.81 20.0938 63.6348 19.8625 63.6628 19.5116C63.6909 19.1641 63.8898 18.965 64.228 18.9271C64.3673 18.911 64.5089 18.919 64.6493 18.919C67.6548 18.919 70.6591 18.9133 73.6646 18.9259C74.0016 18.9271 74.1174 18.8523 74.1263 18.4841C74.1567 17.3715 74.9106 16.4395 76.0015 16.0966C76.0802 16.0725 76.1712 16.0805 76.2262 16C76.5352 16 76.8442 16 77.1531 16C77.188 16.023 77.2194 16.0552 77.2576 16.0667C78.5418 16.4625 79.1744 17.2426 79.2699 18.6038C79.2901 18.8891 79.407 18.9236 79.6362 18.9213C80.4788 18.9156 81.3215 18.9018 82.163 18.9328C83.1551 18.9685 83.8584 19.6255 83.9719 20.5839C84.0022 20.8393 83.9966 21.1005 83.9966 21.3594C83.9977 29.2662 83.9977 37.1741 83.9966 45.0809C83.9966 46.0152 84.009 46.9506 83.9865 47.8837C83.955 49.2057 83.2225 49.9444 81.9271 49.995C81.7585 50.0019 81.59 49.9996 81.4215 49.9996C73.1668 49.9996 64.9122 49.9996 56.6576 49.9996C52.7264 49.9996 48.7962 50.0019 44.865 49.9939C43.1931 49.9904 41.7674 48.9515 41.2247 47.366C41.1427 47.1255 41.0764 46.8781 41.0034 46.6342C41.0034 37.5734 41.0034 28.5126 41.0034 19.4517H41ZM42.2696 43.1433C42.9403 42.5945 43.6032 42.2413 44.3627 42.1895C45.1739 42.1343 45.9896 42.1561 46.8042 42.1504C47.4806 42.1446 47.5716 42.0537 47.5716 41.345C47.5716 33.6223 47.5716 25.8996 47.5716 18.1769C47.5716 18.048 47.5794 17.9169 47.5626 17.7892C47.5334 17.5682 47.4075 17.3876 47.1896 17.3864C46.2087 17.383 45.2166 17.2495 44.2504 17.4532C43.0066 17.7144 42.2718 18.7752 42.2718 20.1858C42.2707 27.6784 42.2718 35.171 42.2718 42.6635C42.2718 42.7901 42.2718 42.9155 42.2718 43.1433H42.2696ZM78.0037 30.6641C78.0037 27.6899 77.9992 24.7156 78.0104 21.7414C78.0104 21.4319 77.9497 21.3111 77.6217 21.326C77.0194 21.3548 76.4139 21.3559 75.8128 21.326C75.4645 21.3088 75.369 21.4089 75.3701 21.7725C75.3836 25.8961 75.3791 30.0198 75.3791 34.1446C75.3791 35.9557 75.3858 37.7655 75.3723 39.5765C75.3701 39.8998 75.4319 40.0322 75.7802 40.0138C76.3824 39.9827 76.9869 39.9873 77.5891 40.0126C77.9138 40.0264 78.0138 39.9355 78.0126 39.588C77.9992 36.6138 78.0048 33.6395 78.0048 30.6653L78.0037 30.6641ZM76.6723 20.0259C77.0093 20.0259 77.3464 20.0167 77.6823 20.0293C77.9048 20.0374 78.0205 19.9833 78.0082 19.7221C77.9891 19.3355 78.0149 18.9455 77.9958 18.5589C77.9621 17.8766 77.3936 17.3232 76.7296 17.3013C76.0543 17.2806 75.4341 17.8306 75.3869 18.5244C75.3589 18.9386 75.3847 19.3574 75.3746 19.7739C75.3701 19.958 75.4398 20.0305 75.6195 20.027C75.9701 20.0201 76.3206 20.0247 76.6711 20.0259H76.6723ZM76.6936 43.3562C77.0105 42.7038 77.288 42.1274 77.5722 41.5544C77.661 41.376 77.6385 41.2989 77.4239 41.3024C76.9341 41.3105 76.4442 41.3128 75.9543 41.3024C75.7195 41.2978 75.7375 41.4025 75.815 41.5601C76.097 42.1343 76.3768 42.7096 76.6936 43.3562Z" fill="white"/>
<path d="M62.7415 41.0401C60.6776 41.0401 58.6137 41.0401 56.5497 41.0401C55.8644 41.0401 55.6689 40.8422 55.6678 40.1507C55.6655 39.259 55.6644 38.3673 55.6678 37.4767C55.67 36.9532 55.9217 36.6379 56.3194 36.6483C56.7059 36.6575 56.934 36.9532 56.9362 37.4606C56.9396 38.1222 56.9452 38.7838 56.9329 39.4442C56.9284 39.6709 57.0037 39.7434 57.2227 39.7411C58.1351 39.7319 59.0485 39.7284 59.9608 39.7422C60.2237 39.7468 60.2552 39.6214 60.254 39.4028C60.2484 38.3097 60.2383 37.2167 60.2563 36.1248C60.2776 34.8154 61.0495 33.7949 62.1921 33.5233C63.8044 33.139 65.31 34.3276 65.3437 36.0316C65.365 37.1385 65.3583 38.2453 65.3437 39.3522C65.3403 39.6421 65.3998 39.7526 65.7088 39.7445C66.5784 39.7227 67.4492 39.7284 68.3199 39.7422C68.5727 39.7468 68.657 39.6801 68.6558 39.4074C68.6457 36.9348 68.6457 34.4611 68.6558 31.9885C68.6558 31.7158 68.5626 31.6513 68.3154 31.6513C64.637 31.6571 60.9585 31.6582 57.28 31.6513C56.9935 31.6513 56.9284 31.7595 56.934 32.0299C56.9497 32.7478 56.943 33.4681 56.9374 34.1861C56.934 34.6578 56.6936 34.9431 56.3149 34.9477C55.9385 34.9523 55.6756 34.6601 55.6711 34.201C55.6633 33.4681 55.6588 32.734 55.6734 32.0011C55.679 31.7422 55.6127 31.6352 55.3464 31.6525C55.0386 31.672 54.7285 31.6536 54.4206 31.6582C54.06 31.6628 53.7061 31.6617 53.5398 31.2394C53.3803 30.8344 53.6308 30.5928 53.8735 30.3443C55.7408 28.4332 57.6059 26.5221 59.4721 24.6098C60.3552 23.7054 61.2383 22.7988 62.1236 21.8956C62.5584 21.4526 62.8663 21.4526 63.3056 21.9025C66.0661 24.7283 68.8244 27.5553 71.586 30.3811C71.8253 30.6262 72.0276 30.877 71.8737 31.2509C71.7209 31.6226 71.4074 31.6548 71.0681 31.6594C70.7063 31.6651 70.24 31.4995 70.0097 31.7307C69.7603 31.9804 69.9288 32.4659 69.9277 32.8468C69.9187 35.2043 69.9232 37.563 69.9232 39.9206C69.9232 40.9365 69.8243 41.0401 68.8513 41.0401C66.8155 41.0401 64.7796 41.0401 62.7438 41.0401H62.7415ZM69.676 30.3201C69.6064 30.2246 69.585 30.1866 69.5558 30.1567C67.3436 27.8889 65.1268 25.6258 62.9258 23.3465C62.6786 23.091 62.5876 23.2613 62.4404 23.412C60.2877 25.6188 58.1339 27.8245 55.9824 30.0336C55.9093 30.1096 55.7981 30.1636 55.788 30.3201H69.6771H69.676ZM64.0774 37.7448C64.0774 37.2132 64.0774 36.6817 64.0774 36.1501C64.0774 36.1213 64.0774 36.0926 64.0763 36.0638C64.037 35.3079 63.4752 34.7349 62.7842 34.7464C62.0966 34.7579 61.5506 35.309 61.5394 36.0535C61.5225 37.1741 61.5394 38.2948 61.5293 39.4154C61.527 39.6502 61.5854 39.7468 61.8337 39.7411C62.4786 39.7261 63.1247 39.7273 63.7696 39.7411C64.0044 39.7457 64.0909 39.6755 64.0842 39.4258C64.0684 38.8655 64.0797 38.3051 64.0797 37.7448H64.0774Z" fill="white"/>
<path d="M71.9253 44.1225C71.9253 44.5102 71.931 44.8991 71.9242 45.2869C71.9152 45.7425 71.6546 46.0347 71.2771 46.0267C70.9142 46.0186 70.6737 45.7379 70.658 45.303C70.6445 44.9271 70.4561 44.7392 70.0928 44.7392C65.1504 44.7392 60.2069 44.7438 55.2644 44.73C54.8768 44.73 54.7128 44.7956 54.7442 45.2362C54.7791 45.7333 54.506 46.0313 54.1184 46.0267C53.7297 46.0221 53.4881 45.7241 53.4847 45.2236C53.4791 44.4619 53.478 43.6991 53.4847 42.9374C53.4892 42.4472 53.7488 42.1458 54.1386 42.1538C54.5105 42.1619 54.7835 42.4553 54.7442 42.9224C54.7038 43.3884 54.8847 43.4505 55.2858 43.4494C60.2563 43.4356 65.2279 43.4367 70.1985 43.4494C70.5501 43.4494 70.6973 43.393 70.6692 42.988C70.6333 42.4564 70.8984 42.1492 71.2973 42.1538C71.695 42.1584 71.9242 42.4645 71.9276 43.0007C71.9298 43.3746 71.9276 43.7485 71.9276 44.1225H71.9253Z" fill="white"/>
<path d="M0 33H31" stroke="white"/>
<path d="M95 33L168 33" stroke="white"/>
</svg>
