<svg width="168" height="66" viewBox="0 0 168 66" fill="none" xmlns="http://www.w3.org/2000/svg">
<circle cx="62.7567" cy="32.7006" r="32.2006" stroke="white"/>
<path d="M56.2805 20.0895C54.7311 20.0895 53.2078 20.0981 51.6857 20.0819C51.4049 20.0786 51.3788 20.2528 51.3037 20.4291C50.8935 21.379 49.923 21.9945 48.934 21.9361C47.8579 21.8734 46.9624 21.181 46.661 20.1782C46.2845 18.9287 46.9439 17.6153 48.1767 17.1599C49.404 16.7066 50.7749 17.2756 51.2863 18.4851C51.4028 18.7599 51.529 18.8443 51.8227 18.8432C54.4624 18.8313 57.1009 18.8335 59.7406 18.841C59.9908 18.841 60.1181 18.7891 60.2302 18.5327C60.6545 17.5558 61.4173 17.0182 62.4999 17.0171C63.5836 17.0171 64.3452 17.5558 64.7707 18.5316C64.8816 18.7869 65.0079 18.8421 65.2592 18.8421C67.9119 18.8345 70.5635 18.8335 73.2162 18.8421C73.4751 18.8421 73.5959 18.7772 73.6993 18.5241C74.1465 17.426 75.3052 16.818 76.4466 17.0484C77.6174 17.2843 78.4465 18.2969 78.4399 19.4825C78.4334 20.6412 77.6152 21.6516 76.4978 21.8788C75.3139 22.12 74.1628 21.5358 73.7036 20.4302C73.5981 20.1749 73.4827 20.0797 73.1988 20.083C71.7157 20.0981 70.2316 20.0905 68.7453 20.0905C68.7236 20.2593 68.8715 20.2463 68.9466 20.2853C73.375 22.5203 76.0963 26.0557 77.119 30.8839C77.2431 31.4713 77.3203 32.0685 77.3377 32.6689C77.3454 32.9242 77.4226 33.0227 77.7044 33.0237C78.9872 33.0281 78.9981 33.0486 78.9981 34.3219C78.9981 35.1182 79.0036 35.9144 78.9959 36.7106C78.9916 37.2602 78.7762 37.4711 78.2332 37.4733C77.2485 37.4765 76.2638 37.4765 75.2791 37.4733C74.7558 37.4711 74.5338 37.2602 74.5295 36.7398C74.5218 35.7478 74.5218 34.7557 74.5295 33.7637C74.5338 33.2477 74.758 33.0346 75.278 33.0172C75.8417 32.9985 76.0959 32.7169 76.0408 32.1723C75.4587 26.3673 70.8888 21.4158 65.1286 20.3415C64.9099 20.3004 64.8098 20.3491 64.7075 20.5503C64.2549 21.4461 63.5031 21.9307 62.501 21.9318C61.4989 21.9318 60.747 21.4482 60.2922 20.5536C60.191 20.3545 60.0953 20.2993 59.8733 20.3404C54.2774 21.3747 49.75 26.1271 49.021 31.7429C48.9786 32.0663 48.9688 32.3941 48.9144 32.7154C48.8698 32.9761 48.9731 33.0172 49.2071 33.0216C50.4736 33.0465 50.4736 33.0529 50.4736 34.3089C50.4736 35.1052 50.4779 35.9014 50.4725 36.6976C50.4681 37.2688 50.2581 37.4722 49.6847 37.4744C48.7131 37.4765 47.7414 37.4776 46.7698 37.4744C46.2247 37.4722 46.0082 37.2634 46.0049 36.7149C45.9984 35.7359 45.9984 34.7568 46.0049 33.7778C46.0082 33.2704 46.2258 33.0551 46.7034 33.0162C47.0081 32.9913 47.4096 33.1633 47.5924 32.9253C47.748 32.723 47.6653 32.3476 47.7055 32.0501C48.4226 26.7351 51.1699 22.8319 55.9454 20.3404C56.0488 20.2863 56.1521 20.2323 56.2555 20.176C56.2631 20.1717 56.2642 20.1544 56.2849 20.0927L56.2805 20.0895ZM75.9624 18.2644C75.2889 18.2644 74.7362 18.8161 74.7438 19.4793C74.7514 20.1403 75.3248 20.6985 75.982 20.6855C76.6349 20.6726 77.1691 20.1306 77.1734 19.4793C77.1778 18.7999 76.6446 18.2644 75.9624 18.2655V18.2644ZM49.0362 18.2644C48.3529 18.2622 47.8176 18.7945 47.8198 19.4739C47.822 20.1425 48.3834 20.6964 49.046 20.6855C49.6934 20.6747 50.2396 20.1295 50.2505 19.4836C50.2614 18.8216 49.7097 18.2666 49.0362 18.2644ZM63.7109 19.4663C63.7109 18.7945 63.1647 18.259 62.4846 18.2644C61.8242 18.2687 61.291 18.7967 61.2823 19.4512C61.2736 20.1165 61.8242 20.679 62.489 20.6845C63.1516 20.6899 63.712 20.1316 63.7109 19.4652V19.4663ZM49.2103 35.2783C49.2103 34.6046 48.873 34.2678 48.1984 34.2678C47.2594 34.2678 47.2573 34.2678 47.2605 35.1971C47.2616 35.5206 47.1561 35.9479 47.3204 36.1394C47.514 36.3655 47.958 36.2108 48.2931 36.2151C49.2103 36.2259 49.2103 36.2184 49.2103 35.2772V35.2783ZM76.7894 36.2194C77.0527 36.1805 77.4748 36.3666 77.6761 36.147C77.8709 35.9349 77.7186 35.5228 77.7371 35.1993C77.7371 35.1863 77.7371 35.1733 77.7371 35.1603C77.7371 34.2678 77.7371 34.2613 76.8307 34.2722C76.4945 34.2765 76.0636 34.124 75.8482 34.3479C75.6512 34.5524 75.7927 34.9721 75.7894 35.2967C75.7829 36.2205 75.7873 36.2205 76.7904 36.2205L76.7894 36.2194Z" fill="white"/>
<path d="M62.5021 48.999C61.0713 48.999 59.6405 49.0012 58.2097 48.999C57.6341 48.998 57.4306 48.7967 57.4263 48.2212C57.4197 47.4769 57.4165 46.7337 57.4295 45.9894C57.4339 45.759 57.3664 45.6497 57.1325 45.5751C56.1108 45.2494 55.3709 44.1492 56.1848 42.9581C56.5014 42.4951 56.7636 41.9964 57.0541 41.5161C57.1216 41.4046 57.1814 41.2456 57.2826 41.2067C57.7168 41.0422 57.5166 40.8432 57.3566 40.6106C56.4688 39.3178 55.5885 38.0207 54.7072 36.7236C54.3917 36.2584 54.4036 36.0604 54.7714 35.6493C57.547 32.5412 59.3032 28.9096 60.3651 24.9187C60.4054 24.7673 60.4326 24.6126 60.4783 24.4633C60.5729 24.1549 60.7775 23.9797 61.1126 23.9797C62.0309 23.9797 62.9503 23.9786 63.8687 23.9797C64.2854 23.9797 64.4638 24.2296 64.553 24.6007C65.0351 26.5977 65.7401 28.5147 66.6606 30.3538C67.6181 32.2665 68.7682 34.0504 70.2131 35.6396C70.5961 36.0604 70.6027 36.2627 70.273 36.7463C69.3764 38.064 68.4798 39.3816 67.58 40.6982C67.4592 40.8745 67.2993 41.0433 67.6497 41.1407C67.6616 41.1439 67.6747 41.1537 67.6812 41.1634C68.2329 42.0278 68.9314 42.8251 69.1392 43.8571C69.2796 44.5527 68.7486 45.2548 67.9423 45.5394C67.641 45.6465 67.5485 45.786 67.5594 46.0954C67.5844 46.7997 67.5702 47.505 67.5659 48.2093C67.5615 48.8032 67.3613 48.9969 66.7542 48.998C65.3364 49.0001 63.9187 48.998 62.501 48.998L62.5021 48.999ZM61.8688 29.4894C61.8688 28.1577 61.8699 26.8271 61.8666 25.4953C61.8666 25.4045 61.9243 25.2692 61.7676 25.24C61.6175 25.2108 61.5576 25.3017 61.5359 25.4369C61.5239 25.5137 61.4945 25.5873 61.4738 25.663C60.401 29.4775 58.6971 32.9707 56.1195 36.0139C55.9476 36.2173 55.965 36.346 56.1032 36.5472C57.0672 37.946 58.0225 39.3502 58.9713 40.7588C59.0932 40.9394 59.2205 41.0206 59.4457 41.0195C61.4804 41.0108 63.515 41.0108 65.5497 41.0195C65.7738 41.0195 65.9033 40.9427 66.0252 40.7609C66.8782 39.492 67.7421 38.2316 68.6017 36.967C68.9136 36.5083 68.8951 36.0622 68.5462 35.6288C66.1558 32.6494 64.5324 29.2893 63.5118 25.6284C63.4704 25.4791 63.5161 25.1935 63.2343 25.2487C63.0265 25.2898 63.1342 25.5137 63.1331 25.65C63.1255 28.2075 63.1331 30.766 63.1212 33.3234C63.1201 33.5971 63.1951 33.7194 63.465 33.8178C64.6336 34.243 65.3789 35.4524 65.2287 36.6219C65.0481 38.0283 63.9546 39.0322 62.5565 39.0765C61.2693 39.1166 60.0735 38.1808 59.8178 36.9324C59.536 35.5563 60.2476 34.2873 61.6001 33.7918C61.8122 33.7139 61.8732 33.6209 61.871 33.4035C61.8601 32.0988 61.8655 30.793 61.8655 29.4883L61.8688 29.4894ZM62.489 44.4684C63.9448 44.4684 65.3996 44.4684 66.8554 44.4684C67.1176 44.4684 67.382 44.4684 67.6181 44.3266C67.8651 44.1784 67.9761 44.001 67.7965 43.7165C67.5387 43.3086 67.2971 42.8911 67.0588 42.4713C66.9707 42.3155 66.8586 42.2604 66.6802 42.2614C63.9002 42.2658 61.1213 42.2658 58.3413 42.2614C58.1705 42.2614 58.0443 42.2917 57.9518 42.454C57.707 42.8846 57.4556 43.3119 57.1934 43.7327C57.04 43.9783 57.1162 44.1449 57.3316 44.2931C57.5851 44.4673 57.8745 44.4684 58.1629 44.4684C59.6056 44.4705 61.0473 44.4684 62.4901 44.4684H62.489ZM62.4596 47.7463C63.6271 47.7463 64.7935 47.7387 65.961 47.7517C66.2341 47.7549 66.3288 47.6803 66.3168 47.4023C66.2961 46.9338 66.3048 46.4632 66.3135 45.9948C66.3168 45.7958 66.2472 45.7179 66.0404 45.7189C63.6804 45.7233 61.3193 45.7233 58.9593 45.7189C58.7537 45.7189 58.6819 45.7947 58.6862 45.9948C58.6949 46.4643 58.7036 46.9338 58.683 47.4023C58.671 47.6792 58.7646 47.7549 59.0377 47.7517C60.178 47.7376 61.3193 47.7463 62.4607 47.7463H62.4596ZM62.4836 34.8834C61.6751 34.8899 61.0092 35.5574 61.0125 36.359C61.0158 37.1606 61.686 37.8238 62.4944 37.827C63.3159 37.8292 64.0025 37.1401 63.9851 36.3287C63.9688 35.5249 63.2942 34.8769 62.4825 34.8845L62.4836 34.8834Z" fill="white"/>
<path d="M0 33H31" stroke="white"/>
<path d="M95 33L168 33" stroke="white"/>
</svg>
