<svg width="229" height="63" viewBox="0 0 229 63" fill="none" xmlns="http://www.w3.org/2000/svg">
<g clip-path="url(#clip0_4_106)">
<path d="M0 8.59029C1.12305 8.5691 2.2461 8.53943 3.37338 8.53096C4.62357 8.51824 5.87799 8.53096 7.21293 8.53096C7.16208 5.66189 7.11546 2.8352 7.06461 0.00427246H7.44602C7.49263 2.81825 7.53925 5.62799 7.59011 8.52248C25.6182 8.45044 43.6124 8.37839 61.6066 8.31059C61.6617 8.68352 61.6617 8.68776 61.2718 8.692C59.6487 8.69624 58.0255 8.70048 56.4067 8.70471C45.7483 8.74709 35.0942 8.78947 24.4358 8.82761C19.0113 8.8488 13.5868 8.86999 8.16646 8.88694C8.00966 8.88694 7.85286 8.88694 7.64096 8.88694C7.63249 9.08613 7.61553 9.2514 7.61977 9.41668C7.72996 16.8118 7.84438 24.207 7.95033 31.6022C7.95033 31.7971 7.8571 31.9921 7.81048 32.187C7.7342 31.9963 7.59434 31.8056 7.59011 31.6106C7.46721 24.3426 7.35702 17.0746 7.24684 9.80657C7.2426 9.52263 7.24684 9.24293 7.24684 8.91237C7.02223 8.9039 6.85271 8.88694 6.68319 8.88694C4.64899 8.89542 2.61056 8.90813 0.576357 8.91237C0.38565 8.91237 0.199182 8.88694 0.00847583 8.87423C0.00847583 8.77676 0.00847583 8.68352 0.00847583 8.58605L0 8.59029Z" fill="black"/>
<path d="M52.2789 49.6048H48.2105V17.4899C48.1809 17.4814 48.1554 17.4729 48.1258 17.4602C48.0537 17.6043 47.9775 17.7484 47.9139 17.8967C43.3963 28.3135 38.8786 38.7261 34.3737 49.1471C34.2212 49.5031 34.0517 49.6514 33.6491 49.6345C32.793 49.6006 31.9327 49.6006 31.0724 49.6345C30.6952 49.6472 30.5215 49.5243 30.3689 49.181C26.843 41.1586 23.3001 33.1405 19.7656 25.1181C18.7485 22.8085 17.7272 20.4988 16.7101 18.1891C16.6508 18.0535 16.5787 17.9221 16.4346 17.8119V49.5963H12.3408V14.4131C12.4807 14.4131 12.6332 14.4131 12.7858 14.4131C14.7437 14.4131 16.6974 14.4216 18.6553 14.4047C19.0113 14.4047 19.1766 14.5149 19.3164 14.8412C23.5628 24.5799 27.8219 34.3102 32.081 44.0404C32.1488 44.193 32.2251 44.3455 32.3311 44.5659C32.9329 43.1971 33.505 41.8876 34.0771 40.5823C37.8276 32.0132 41.5782 23.4484 45.3118 14.8751C45.4728 14.5021 45.6678 14.4004 46.0492 14.4047C48.1131 14.4216 50.1812 14.4131 52.2832 14.4131V49.6048H52.2789Z" fill="black"/>
<path d="M218.181 49.626C216.023 49.626 213.938 49.6345 211.858 49.6091C211.692 49.6091 211.485 49.4099 211.374 49.2489C208.005 44.1591 204.645 39.0652 201.284 33.9712C197.851 28.7713 194.419 23.5713 190.99 18.3714C190.897 18.2316 190.799 18.0959 190.617 17.9815V49.6006H186.532V14.4132H187.032C188.863 14.4132 190.689 14.4259 192.52 14.4005C192.918 14.3962 193.143 14.5191 193.359 14.8497C200.127 25.2368 206.908 35.6155 213.684 45.9984C213.773 46.134 213.866 46.2738 214.057 46.3756V45.9221C214.057 36.8572 214.057 27.7881 214.049 18.7232C214.049 18.4816 213.964 18.1765 213.803 18.0112C211.726 15.8499 211.578 12.8579 213.459 10.5228C213.498 10.4719 213.536 10.4211 213.68 10.2558C213.531 10.1626 213.362 10.0905 213.239 9.97187C210.917 7.65796 208.603 5.33982 206.289 3.02168C206.128 2.86064 205.869 2.69536 206.297 2.49194C208.81 5.00079 211.328 7.51811 213.875 10.0566C215.21 8.92086 216.731 8.40807 218.473 8.68778C219.693 8.88272 220.719 9.44636 221.575 10.3321C223.096 11.9086 223.936 15.0362 221.613 17.8247C224.067 20.27 226.521 22.7153 229 25.1902C228.902 25.2962 228.826 25.3809 228.724 25.4911C226.245 23.0162 223.796 20.5667 221.312 18.0832C220.422 18.8545 219.397 19.3588 218.181 19.4945V49.626ZM221.334 17.4221C222.821 16.0194 223.385 12.8918 221.308 10.6372C219.414 8.58183 216.142 8.45893 214.231 10.3278C216.6 12.6926 218.969 15.0574 221.338 17.4221H221.334ZM217.693 14.4132C216.388 13.074 215.176 11.8365 213.964 10.5948C211.798 12.8621 212.404 16.2482 214.061 17.5704V14.4132H217.693ZM218.202 19.0876C219.291 18.952 220.21 18.524 220.961 17.8374C220.02 16.9009 219.104 15.9897 218.202 15.0913V19.0876Z" fill="black"/>
<path d="M94.9971 14.4132H95.4971C101.24 14.4132 106.978 14.4132 112.72 14.4132C114.347 14.4132 115.958 14.5488 117.534 14.9726C120.624 15.8032 122.467 17.8078 123.09 20.9142C123.595 23.4357 123.573 25.9742 123.022 28.4916C122.404 31.3013 120.683 33.0728 117.895 33.7974C117.759 33.8313 117.623 33.8737 117.356 33.9542C117.759 34.0305 118.047 34.0771 118.327 34.1365C120.992 34.6916 122.514 36.3402 122.827 39.044C122.899 39.6585 122.933 40.2814 122.938 40.9002C122.95 43.6336 122.942 46.3713 122.942 49.1048V49.6006H118.823C118.823 49.4184 118.823 49.2489 118.823 49.0794C118.823 46.6002 118.857 44.1168 118.806 41.6376C118.789 40.7264 118.674 39.7856 118.416 38.9168C117.789 36.8445 116.161 35.9376 114.152 35.6155C113.339 35.4841 112.508 35.4248 111.686 35.4206C107.647 35.3994 103.609 35.4121 99.5698 35.4121C99.4299 35.4121 99.2901 35.4121 99.1078 35.4121V49.5921H95.0055V14.4132H94.9971ZM99.1078 31.9539C99.2731 31.9624 99.4003 31.9709 99.5232 31.9709C103.592 31.9709 107.664 31.9878 111.733 31.9539C112.729 31.9455 113.733 31.8395 114.716 31.67C117.06 31.2632 118.611 29.9536 119.068 27.5465C119.441 25.5886 119.412 23.6264 118.933 21.6812C118.416 19.5792 117.043 18.3884 114.941 18.0451C114.144 17.9137 113.33 17.8544 112.521 17.8502C108.211 17.8332 103.901 17.8417 99.5952 17.8417C99.4426 17.8417 99.2858 17.8544 99.1078 17.8629V31.9455V31.9539Z" fill="black"/>
<path d="M90.4287 49.626C88.9751 49.626 87.6063 49.6345 86.2374 49.609C86.1145 49.609 85.9365 49.4141 85.8814 49.2742C85.0466 47.1299 84.2159 44.9812 83.4107 42.8241C83.2751 42.4639 83.1014 42.3622 82.7242 42.3622C76.808 42.3749 70.8919 42.3749 64.9758 42.3622C64.6071 42.3622 64.4291 42.4512 64.2808 42.8157C63.4205 44.9685 62.5263 47.1044 61.6533 49.2531C61.5431 49.5285 61.4032 49.6345 61.0981 49.6302C59.7674 49.6133 58.4324 49.6217 57.0339 49.6217C57.1102 49.4099 57.1653 49.2488 57.2246 49.092C61.6024 37.7132 65.9802 26.3344 70.3452 14.9471C70.5063 14.5233 70.7139 14.3835 71.1631 14.4004C72.2099 14.4386 73.2609 14.4216 74.3119 14.4004C74.4518 14.4004 74.6764 14.3072 74.7145 14.2013C75.2527 12.7053 76.2317 11.6119 77.7107 10.9126C76.5919 8.29784 75.4858 5.70423 74.367 3.09368C74.473 3.03858 74.5662 2.98773 74.6976 2.91992C75.8206 5.53895 76.931 8.13256 78.0582 10.7558C79.6983 10.26 81.2706 10.3702 82.7454 11.2559C83.8176 11.9001 84.5719 12.8282 85.0127 13.9936C85.7755 16.0024 85.4322 19.0537 82.3682 20.8209C82.9488 22.1855 83.5336 23.5543 84.1185 24.9232C85.144 27.3176 86.1738 29.7078 87.1952 32.1064C87.2757 32.2972 87.4918 32.5514 87.013 32.6277C85.3517 28.7543 83.6904 24.8766 82.0588 21.0582C81.1392 21.1938 80.2704 21.3252 79.355 21.4608C83.0251 30.7885 86.7078 40.1627 90.4287 49.6175V49.626ZM81.8766 38.9168C79.1389 31.7293 76.4139 24.5799 73.6508 17.3331C70.9004 24.5926 68.1966 31.742 65.4759 38.9168H81.8724H81.8766ZM78.2405 11.1754C79.5669 14.2733 80.8807 17.3415 82.1944 20.4098C84.5889 19.2274 85.6187 16.299 84.5338 13.8665C83.4658 11.4678 80.6476 10.243 78.2405 11.1754ZM75.1341 14.4131C75.4901 14.4131 75.8121 14.4428 76.1257 14.4047C76.4944 14.3623 76.6428 14.5191 76.7699 14.8539C77.4946 16.7525 78.2489 18.6384 79.0033 20.5242C79.0669 20.681 79.2025 20.8929 79.3338 20.9184C80.1941 21.0752 81.0248 20.9268 81.8596 20.5751C80.5247 17.456 79.2067 14.3835 77.893 11.3152C76.5877 11.8238 75.4307 13.1248 75.1341 14.4131Z" fill="black"/>
<path d="M121.221 11.4763V7.92495C121.459 7.92495 121.658 7.92495 121.857 7.92495C132.625 7.92495 143.39 7.92919 154.158 7.92071C160.693 7.91647 167.228 7.88257 173.767 7.88257C174.017 7.88257 174.043 8.27246 173.793 8.27246C167.622 8.3106 161.452 8.33179 155.281 8.36145C155.095 8.36145 154.908 8.3784 154.697 8.39112V11.6246H155.315C163.906 11.6246 172.492 11.6246 181.082 11.6331C181.281 11.6331 181.289 12.0103 181.099 12.0103C170.762 12.023 160.422 12.0272 150.086 12.0315C147.047 12.0315 144.009 12.0272 140.974 12.023C140.8 12.023 140.631 12.023 140.411 12.023V49.8888H135.52V12.0145H134.91C130.553 12.0145 126.197 12.0188 121.836 12.0145C112.796 11.9976 103.753 11.9764 94.7131 11.9552C94.6029 11.9552 94.4842 11.9764 94.3825 11.9425C94.3147 11.9213 94.2342 11.8196 94.2384 11.7518C94.2384 11.6882 94.3274 11.5865 94.3952 11.5738C94.5309 11.5441 94.6792 11.5611 94.8233 11.5611C103.46 11.5314 112.093 11.506 120.73 11.4763C120.87 11.4763 121.014 11.4763 121.225 11.4763H121.221Z" fill="black"/>
<path d="M179.904 29.9621V33.3948H161.053V46.1764H180.713V49.5879H156.943V14.4429H180.802V17.829H161.066V29.9621H179.904Z" fill="black"/>
<path d="M220.448 53.2283C220.448 51.4568 220.461 49.7405 220.448 48.0241C220.397 42.1885 220.338 36.3487 220.287 30.5131C220.287 30.3054 220.173 29.9791 220.656 30.102C220.728 37.7853 220.8 45.4729 220.868 53.2325C221.096 53.2325 221.296 53.2325 221.495 53.2325C223.546 53.224 225.597 53.2198 227.648 53.2113C227.695 53.2113 227.75 53.1944 227.788 53.2113C227.898 53.2664 227.996 53.3342 228.102 53.3978C228 53.4614 227.894 53.58 227.792 53.58C226.729 53.597 225.661 53.597 224.597 53.597C223.372 53.597 222.152 53.597 220.901 53.597V62.1618C220.571 62.2169 220.567 62.2169 220.562 61.8312C220.545 60.064 220.528 58.3011 220.52 56.5339C220.516 55.5803 220.52 54.631 220.52 53.597C173.428 53.7072 126.409 53.8131 79.3508 53.9233C79.1686 55.5337 78.5032 56.8644 77.2319 57.8561C76.2868 58.5935 75.2104 58.9749 74.0111 58.9961C72.5617 59.0215 71.2945 58.5511 70.2224 57.5764C69.1629 56.6186 68.5992 55.3981 68.4424 53.9487C67.5821 53.9487 66.76 53.9487 65.9378 53.9487C65.8276 53.9487 65.709 53.9742 65.6073 53.9487C65.4335 53.9063 65.264 53.8343 65.0945 53.775C65.2555 53.7072 65.4166 53.5885 65.5818 53.58C66.3616 53.5546 67.1414 53.5631 67.9212 53.5631C68.078 53.5631 68.2348 53.5631 68.4212 53.5631C68.5102 51.8425 69.129 50.4058 70.447 49.3252C71.4683 48.4903 72.6464 48.075 73.9729 48.0877C76.8716 48.1131 78.7533 49.9905 79.4017 53.5419C126.396 53.4317 173.403 53.3258 220.456 53.2156L220.448 53.2283ZM78.9525 53.5419C78.8465 51.5331 77.9947 50.0244 76.2741 49.109C74.4476 48.1343 72.6168 48.2699 70.9301 49.4692C69.5528 50.4482 68.8874 51.8298 68.8408 53.5376H78.9525V53.5419ZM68.8577 53.9657C69.0442 55.682 69.8155 56.9916 71.2522 57.8561C73.0109 58.9156 74.8247 58.9029 76.575 57.8307C77.9989 56.9576 78.7533 55.6397 78.9313 53.9657H68.862H68.8577Z" fill="black"/>
<path d="M84.877 8.069C86.6231 8.069 88.3352 8.069 90.0515 8.069C98.8113 8.04781 107.571 8.02238 116.331 7.99696C116.458 7.99696 116.589 7.97577 116.712 8.00543C116.814 8.03086 116.899 8.11562 116.992 8.17071C116.899 8.24276 116.805 8.37837 116.712 8.37837C115.886 8.39532 115.059 8.39108 114.233 8.39532C104.6 8.42499 94.9633 8.45465 85.3305 8.48008C85.1228 8.48008 84.7669 8.61993 84.8813 8.069H84.877Z" fill="black"/>
</g>
<defs>
<clipPath id="clip0_4_106">
<rect width="229" height="62.1956" fill="white"/>
</clipPath>
</defs>
</svg>
